<svg width="100" height="100" viewBox="0 0 100 101" fill="none" xmlns="http://www.w3.org/2000/svg">
<path opacity="0.5" d="M82.6543 19.2515C72.8381 9.14072 61.6783 1.00805 48.9751 0.738991C36.2491 0.495567 22.0292 8.11215 13.0429 19.5976C4.05666 31.0831 -0.692684 44.7982 0.0819128 58.4209C0.854632 72.0197 6.92359 82.5805 17.3947 89.9362C27.864 97.2682 42.7106 101.397 55.8472 99.2626C68.9858 97.152 80.642 91.724 88.9733 82.9936C97.2818 74.2887 100.029 61.2068 98.8189 49.9638C97.609 38.7207 92.4705 29.3622 82.6543 19.2515Z" fill="#E19F17"/>
<path d="M95.3096 45.4768C97.7323 58.5143 96.1157 71.3433 89.0269 80.9507C81.9045 90.5605 69.3413 96.9139 55.0119 97.0915C40.6824 97.2691 27.0102 93.0294 16.5875 84.7306C6.18279 76.4467 1.66999 63.9483 1.82182 51.985C1.99157 40.0366 6.81027 28.6408 16.0657 20.0733C25.3031 11.4908 36.335 5.89216 48.09 4.64027C59.8114 3.39088 72.238 6.47334 80.5119 13.7472C88.7859 21.0211 92.887 32.4392 95.3096 45.4768Z" fill="white" stroke="#E19F17" stroke-width="1.69545"/>
</svg>
